<svg width="800" height="800" viewBox="0 0 800 800" fill="none" xmlns="http://www.w3.org/2000/svg">
<rect width="800" height="800" fill="#50AF95"/>
<path fill-rule="evenodd" clip-rule="evenodd" d="M449.284 416.511C446.524 416.718 432.264 417.569 400.455 417.569C375.155 417.569 357.192 416.81 350.89 416.511C253.117 412.21 180.138 395.19 180.138 374.812C180.138 354.434 253.117 337.437 350.89 333.067V399.56C357.284 400.02 375.592 401.101 400.892 401.101C431.252 401.101 446.455 399.836 449.192 399.583V333.113C546.758 337.46 619.576 354.48 619.576 374.812C619.576 395.144 546.781 412.164 449.192 416.488L449.284 416.511ZM449.284 326.236V266.735H585.444V176H214.73V266.735H350.867V326.213C240.214 331.296 157 353.215 157 379.481C157 405.747 240.214 427.643 350.867 432.749V623.419H449.261V432.68C559.661 427.597 642.737 405.701 642.737 379.458C642.737 353.215 559.73 331.319 449.261 326.213L449.284 326.236Z" fill="white"/>
</svg>
